<svg width="430" height="146" viewBox="0 0 430 146" fill="none" xmlns="http://www.w3.org/2000/svg">
<path d="M97.6168 0L97.558 0.141761L97.4404 0.143508L97.4408 0.144382C88.8718 0.286084 80.3022 0.466931 71.737 0.780116L71.7365 0.779669L71.6689 0.782294L71.4828 0.789294C67.6998 0.930559 63.9164 1.07397 60.1346 1.25833L60.1341 1.25746L60.0657 1.26139H60.0652C60.0641 1.26145 60.0632 1.26134 60.0621 1.26139L59.8822 1.27014L59.8835 1.27234C58.9654 1.32335 58.0465 1.38492 57.1286 1.46398C57.1259 1.4642 57.1233 1.46463 57.1206 1.46485C55.164 1.63357 53.2123 1.87801 51.2841 2.25066C51.2807 2.25131 51.2774 2.25218 51.274 2.25286C50.3387 2.43385 49.4091 2.64621 48.487 2.8934L48.4861 2.89208L48.4053 2.91352C48.4044 2.91377 48.4031 2.91415 48.4023 2.9144C48.4016 2.9146 48.4009 2.91507 48.4 2.91527L48.2618 2.95246L48.2627 2.95378C47.2409 3.23252 46.2323 3.55901 45.2421 3.93342C45.2395 3.93442 45.2369 3.93548 45.2342 3.93648C44.2006 4.32758 43.1865 4.76944 42.1966 5.26001C42.1934 5.26161 42.1902 5.26323 42.1869 5.26483C41.1977 5.75543 40.2329 6.29469 39.2967 6.87976C39.2932 6.88196 39.2897 6.88413 39.2862 6.88632C38.3853 7.44987 37.5118 8.05675 36.6686 8.7034L36.6681 8.70295L36.5663 8.78039L36.5659 8.78084C36.5636 8.7825 36.5614 8.78401 36.5593 8.78565L36.4882 8.84078L36.4886 8.84165C35.894 9.29722 35.3125 9.76821 34.7458 10.2558L34.7453 10.2562C34.1589 10.7607 33.5876 11.2821 33.0309 11.8182C33.0205 11.8282 33.0102 11.8383 32.9998 11.8484C32.4443 12.3845 31.9027 12.9356 31.3767 13.5005C31.3761 13.5013 31.3752 13.5019 31.3745 13.5027C30.8439 14.0727 30.3285 14.6567 29.8278 15.2533C29.8267 15.2547 29.8255 15.2562 29.8243 15.2577C29.3242 15.8537 28.8385 16.4622 28.368 17.0822C28.3662 17.0845 28.3645 17.0868 28.3627 17.0892C27.8992 17.7002 27.4502 18.3227 27.0153 18.9544C27.0033 18.9719 26.9913 18.9894 26.9793 19.0069C26.5562 19.623 26.1473 20.2485 25.7513 20.8817C25.7278 20.9193 25.7045 20.9569 25.6811 20.9946C25.316 21.5816 24.9631 22.1754 24.6211 22.7749L24.6198 22.7723L24.5311 22.9298C24.5284 22.9345 24.5254 22.9391 24.5228 22.9438C24.521 22.9468 24.5196 22.95 24.5179 22.953L24.4916 22.9994L24.492 23.0003C23.5233 24.7221 22.6218 26.4895 21.8657 28.318C21.8581 28.3363 21.8504 28.3544 21.8428 28.3727C21.622 28.9093 21.416 29.452 21.2222 29.9995L21.2174 29.9916L21.1393 30.2283L21.1388 30.2292L21.1226 30.276L21.123 30.2764C21.1103 30.3148 21.0967 30.3531 21.084 30.3915C19.1031 36.3645 16.8506 42.2895 15.5169 48.4712L15.5147 48.4673L15.4545 48.7543L15.4458 48.7963L15.4462 48.7968C14.6525 52.5987 14.1853 56.5128 14.5478 60.4041L14.55 60.4286L14.5509 60.4299C14.6282 61.2698 14.7521 62.1075 14.9178 62.9374C14.9317 63.0069 14.9481 63.0754 14.9626 63.1448C15.1345 63.9664 15.345 64.7803 15.6087 65.577C15.6109 65.5835 15.6131 65.5898 15.6153 65.5963C15.8888 66.4202 16.214 67.2264 16.5905 68.0084C16.6001 68.0283 16.6094 68.0481 16.619 68.0679C16.8192 68.4801 17.0325 68.8858 17.2625 69.2829L22.37 78.1019C16.8176 78.1259 6.19334 78.1736 6.19334 78.1736C6.19334 78.1736 3.3178 87.2356 2.1256 91.073L2.12033 91.0638L2.04879 91.3171L2.04834 91.3185L2.04789 91.3198V91.3203L2.03428 91.3636L2.03561 91.3658C0.709241 96.0823 -0.0505374 100.977 0.00261516 105.884V105.885V105.885V105.886V105.886L0.00306435 105.914L0.0039413 105.916C0.0440741 107.536 0.232682 109.165 0.606115 110.748C0.606328 110.749 0.606789 110.75 0.606991 110.751C0.982661 112.343 1.54462 113.89 2.32837 115.335V115.335L2.32881 115.336V115.336C2.32908 115.337 2.32944 115.337 2.32969 115.338V115.338L2.33276 115.343C2.41438 115.495 2.49809 115.645 2.58425 115.794L13.8202 135.194C18.7628 141.47 22.3379 145.995 32.0166 146C56.8173 145.999 81.8545 146 107.291 146C111.463 145.941 117.333 145.806 119.854 145.197L119.855 145.198L119.938 145.177H119.938L120.081 145.14L120.081 145.139C124.337 144.047 128.446 142.321 132.158 139.969L135.264 145.331C135.645 146.003 136.378 145.986 137.13 146H174.885L188.473 99.4407H242.741L234.842 126.763L246.134 146H285.113L305.876 74.5539L326.904 126.39L338.241 146H393.881L430 20.737L418.708 0.942439H379.993L359.081 72.5206C359.081 72.5206 345.234 38.0575 338.309 20.8261H338.338L326.972 0.942439H271.216H159.296L153.96 19.7326L149.594 12.194C149.42 11.8937 149.236 11.5995 149.04 11.3115C149.038 11.3094 149.037 11.3071 149.036 11.305L149.035 11.3045C148.29 10.1966 147.389 9.20972 146.382 8.34069L146.382 8.34024C145.879 7.90587 145.35 7.50099 144.801 7.12521C144.801 7.12499 144.801 7.12456 144.8 7.12434C144.26 6.75459 143.701 6.4138 143.129 6.10007L143.129 6.0992L143.102 6.08432L143.101 6.08345L143.057 6.05938C142.124 5.53282 141.168 5.05364 140.192 4.61771C140.184 4.61418 140.176 4.61073 140.168 4.60721C138.188 3.72412 136.13 3.01851 134.035 2.45368C134.023 2.45048 134.011 2.44724 133.999 2.44405C132.969 2.16725 131.931 1.92483 130.889 1.71162V1.71117L130.875 1.70855C130.863 1.70612 130.851 1.70309 130.839 1.70067H130.839L130.595 1.65079L130.598 1.65692C128.123 1.17111 125.624 0.847668 123.115 0.628279H123.115C120.545 0.403608 117.966 0.284064 115.393 0.199497L115.393 0.199048L115.33 0.197301H115.33L115.128 0.190737L115.13 0.192933C110.634 0.0667866 106.138 0.0768433 101.643 0.0831124L101.642 0.0817904L101.576 0.0831124H101.383L101.385 0.0857376C100.597 0.0973036 99.8092 0.109217 99.0212 0.12074C98.5801 0.12719 98.1391 0.133516 97.698 0.139993L97.6387 0.0376099L97.6168 0ZM101.985 5.10688C118.01 5.13486 129.945 5.03384 139.513 9.86899C141.175 10.7187 142.899 11.7526 144.127 13.1802C146.411 15.8353 146.928 19.1951 146.928 22.5802C146.928 26.4555 146.452 30.242 145.496 34.005C144.857 36.5627 143.584 41.8084 143.584 41.8084L112.996 41.8456C113.785 39.0479 115.313 34.8966 112.543 32.7546C110.066 30.9488 102.838 31.0309 98.3893 30.8688C89.0988 30.8688 79.8076 30.4387 70.5243 31.0727C67.027 31.3113 63.1236 30.8857 59.7378 31.9386C55.5817 33.2309 51.9706 38.8355 52.6144 43.1897C53.0549 46.1691 55.4232 47.3632 58.1648 47.632L106.929 49.8901C106.929 49.8901 117.078 49.946 121.985 50.8645C128.388 52.063 134.996 54.507 137.742 60.8871C138.978 63.7567 138.947 66.8078 138.652 69.8477C138.007 74.654 137.101 79.326 136.189 83.7368C134.281 92.6168 131.561 102.532 125.7 109.723C120.105 116.587 111.789 120.516 103.108 121.752C98.6565 122.386 94.1125 122.386 89.6253 122.494C76.7602 122.81 63.8576 122.716 50.9738 122.716C41.8125 122.716 32.6505 122.612 23.5582 121.434C18.5506 120.787 12.9985 119.712 9.2149 116.123C5.47874 112.579 4.77836 107.845 5.11117 103.002C5.40195 98.7728 6.22841 94.4828 7.60413 90.4573C8.2801 88.4231 9.91276 83.199 9.91276 83.199L39.9626 83.0647C39.4943 86.239 37.2933 90.8109 40.2111 93.4946C44.2 97.164 50.7412 96.0577 55.6929 96.0577H89.85C93.1017 96.0577 97.3327 95.9457 100.187 94.1894C102.116 93.0021 103.485 90.9277 104.361 88.8891C104.881 87.6772 105.404 86.3958 105.568 85.0809C105.782 83.3649 106.273 81.017 105.198 79.4892C104.023 77.8225 101.802 77.6166 99.9623 77.3702L50.7491 74.7848C46.2406 74.5877 41.7606 74.5901 37.266 74.1421C31.9276 73.6089 25.4119 72.3052 22.1643 67.6076C15.5519 57.8261 22.7747 41.7525 26.2522 30.8688C29.9057 22.1189 36.351 13.5226 45.1311 9.43539C52.0727 6.20417 59.8998 6.32059 67.3782 5.9942C78.3765 5.50771 90.0987 5.2953 101.985 5.10688ZM275.018 6.00295L323.557 6.22697L358.388 92.9214L383.781 6.00295L412.096 6.22697L378.837 121.82L330.413 121.589L295.242 34.9011L270.074 121.82H241.535L275.018 6.00295ZM163.108 6.22697H269.175L261.759 32.4369H185.805L180.187 52.1504H255.917C254.128 59.8588 251.173 67.2872 249.4 75.0001H173.445L159.847 121.589L129.85 121.82L163.108 6.22697Z" fill="#88FFE2"/>
</svg>
